<svg id="visual" viewBox="0 0 900 600" width="900" height="600" xmlns="http://www.w3.org/2000/svg" xmlns:xlink="http://www.w3.org/1999/xlink" version="1.1"><path d="M0 151L82 151L82 145L164 145L164 91L245 91L245 91L327 91L327 91L409 91L409 67L491 67L491 115L573 115L573 121L655 121L655 85L736 85L736 115L818 115L818 133L900 133L900 73L900 0L900 0L818 0L818 0L736 0L736 0L655 0L655 0L573 0L573 0L491 0L491 0L409 0L409 0L327 0L327 0L245 0L245 0L164 0L164 0L82 0L82 0L0 0Z" fill="#c369fa"></path><path d="M0 229L82 229L82 277L164 277L164 211L245 211L245 211L327 211L327 187L409 187L409 229L491 229L491 355L573 355L573 331L655 331L655 253L736 253L736 265L818 265L818 235L900 235L900 283L900 71L900 131L818 131L818 113L736 113L736 83L655 83L655 119L573 119L573 113L491 113L491 65L409 65L409 89L327 89L327 89L245 89L245 89L164 89L164 143L82 143L82 149L0 149Z" fill="#c15bee"></path><path d="M0 325L82 325L82 367L164 367L164 283L245 283L245 313L327 313L327 265L409 265L409 325L491 325L491 451L573 451L573 409L655 409L655 331L736 331L736 331L818 331L818 289L900 289L900 373L900 281L900 233L818 233L818 263L736 263L736 251L655 251L655 329L573 329L573 353L491 353L491 227L409 227L409 185L327 185L327 209L245 209L245 209L164 209L164 275L82 275L82 227L0 227Z" fill="#bf4be1"></path><path d="M0 379L82 379L82 463L164 463L164 331L245 331L245 409L327 409L327 337L409 337L409 445L491 445L491 511L573 511L573 523L655 523L655 427L736 427L736 445L818 445L818 331L900 331L900 463L900 371L900 287L818 287L818 329L736 329L736 329L655 329L655 407L573 407L573 449L491 449L491 323L409 323L409 263L327 263L327 311L245 311L245 281L164 281L164 365L82 365L82 323L0 323Z" fill="#bd3ad4"></path><path d="M0 601L82 601L82 601L164 601L164 601L245 601L245 601L327 601L327 601L409 601L409 601L491 601L491 601L573 601L573 601L655 601L655 601L736 601L736 601L818 601L818 601L900 601L900 601L900 461L900 329L818 329L818 443L736 443L736 425L655 425L655 521L573 521L573 509L491 509L491 443L409 443L409 335L327 335L327 407L245 407L245 329L164 329L164 461L82 461L82 377L0 377Z" fill="#ba24c7"></path></svg>